#N canvas 770 445 450 300 10;
#X obj 139 70 osc~ 440;
#X obj 138 208 dac~;
#X obj 139 36 r freq;
#X obj 200 35 r amp;
#X obj 138 178 *~;
#X connect 0 0 4 0;
#X connect 2 0 0 0;
#X connect 3 0 4 1;
#X connect 4 0 1 0;
#X connect 4 0 1 1;
